<?xml version="1.0" encoding="UTF-8" standalone="no"?>
<svg
   version="1.1"
   width="1080"
   height="1080"
   viewBox="0 0 1080 1080"
   xml:space="preserve"
   id="svg55"
   sodipodi:docname="logo.svg"
   inkscape:version="1.4.2 (f4327f4, 2025-05-13)"
   xmlns:inkscape="http://www.inkscape.org/namespaces/inkscape"
   xmlns:sodipodi="http://sodipodi.sourceforge.net/DTD/sodipodi-0.dtd"
   xmlns="http://www.w3.org/2000/svg"
   xmlns:svg="http://www.w3.org/2000/svg"><sodipodi:namedview
   id="namedview55"
   pagecolor="#ffffff"
   bordercolor="#000000"
   borderopacity="0.25"
   inkscape:showpageshadow="2"
   inkscape:pageopacity="0.0"
   inkscape:pagecheckerboard="0"
   inkscape:deskcolor="#d1d1d1"
   inkscape:zoom="1.0567318"
   inkscape:cx="424.42179"
   inkscape:cy="391.3008"
   inkscape:window-width="1920"
   inkscape:window-height="1009"
   inkscape:window-x="-8"
   inkscape:window-y="-8"
   inkscape:window-maximized="1"
   inkscape:current-layer="svg55" />
<desc
   id="desc1">Created with Fabric.js 5.2.4</desc>
<defs
   id="defs1">
</defs>

<g
   transform="matrix(1 0 0 1 540 540)"
   id="10222627-e71f-4f74-bc0c-856fd5f75376">
<rect
   style="stroke: none; stroke-width: 1; stroke-dasharray: none; stroke-linecap: butt; stroke-dashoffset: 0; stroke-linejoin: miter; stroke-miterlimit: 4; fill: rgb(255,255,255); fill-rule: nonzero; opacity: 1; visibility: hidden;"
   vector-effect="non-scaling-stroke"
   x="-540"
   y="-540"
   rx="0"
   ry="0"
   width="1080"
   height="1080"
   id="rect1" />
</g>
<g
   transform="matrix(1 0 0 1 540 540)"
   id="8453a16a-7248-46d1-8734-5de52cb0bf70">
</g>
<g
   transform="matrix(0 0 0 0 97.93 0)"
   id="g2">
<g
   style=""
   id="g1">
</g>
</g>
<g
   transform="matrix(1.11 0 0 3.68 534.42 534.03)"
   id="g3">
<rect
   style="stroke: rgb(41,171,226); stroke-width: 0; stroke-dasharray: none; stroke-linecap: butt; stroke-dashoffset: 0; stroke-linejoin: miter; stroke-miterlimit: 10; fill: rgba(91, 28, 133, 0); fill-rule: nonzero; opacity: 1;"
   vector-effect="non-scaling-stroke"
   x="-500"
   y="-150"
   rx="0"
   ry="0"
   width="1000"
   height="300"
   id="rect2" />
</g>
<g
   transform="matrix(3.87 0 0 3.87 603.53 543.78)"
   id="g4">
<polyline
   style="stroke: none; stroke-width: 1; stroke-dasharray: none; stroke-linecap: butt; stroke-dashoffset: 0; stroke-linejoin: miter; stroke-miterlimit: 4; fill: rgb(35,31,32); fill-rule: nonzero; opacity: 1;"
   vector-effect="non-scaling-stroke"
   points="20.48,-35.65 -20.61,-11.93 -20.48,35.65 -20.48,35.29 -20.17,35.11 -20.3,-11.75 20.48,-35.29 20.61,11.57 20.48,-35.65 "
   id="polyline3" />
</g>
<g
   transform="matrix(3.87 0 0 3.87 762.32 451.4)"
   id="g5">
<polyline
   style="stroke: none; stroke-width: 1; stroke-dasharray: none; stroke-linecap: butt; stroke-dashoffset: 0; stroke-linejoin: miter; stroke-miterlimit: 4; fill: rgb(35,31,32); fill-rule: nonzero; opacity: 1;"
   vector-effect="non-scaling-stroke"
   points="20.47,-35.47 -20.61,-11.75 -20.47,35.47 -20.17,35.29 -20.31,-11.57 20.47,-35.11 20.61,11.75 20.47,-35.47 "
   id="polyline4" />
</g>
<g
   transform="matrix(3.87 0 0 3.87 445.74 816.7)"
   id="g6">
<polyline
   style="stroke: none; stroke-width: 1; stroke-dasharray: none; stroke-linecap: butt; stroke-dashoffset: 0; stroke-linejoin: miter; stroke-miterlimit: 4; fill: rgb(255,255,255); fill-rule: nonzero; opacity: 1;"
   vector-effect="non-scaling-stroke"
   points="20.32,-35.2 -20.46,-11.66 -20.32,35.2 20.46,11.66 20.32,-35.2 "
   id="polyline5" />
</g>
<g
   transform="matrix(3.87 0 0 3.87 210.94 406.05)"
   id="g7">
<polyline
   style="stroke: none; stroke-width: 1; stroke-dasharray: none; stroke-linecap: butt; stroke-dashoffset: 0; stroke-linejoin: miter; stroke-miterlimit: 4; fill: rgb(92,82,163); fill-rule: nonzero; opacity: 1;"
   vector-effect="non-scaling-stroke"
   points="0.13,-22.71 -39.99,0 -0.13,22.71 39.99,0 0.13,-22.71 "
   id="polyline6" />
</g>
<g
   transform="matrix(3.87 0 0 3.87 210.95 406.04)"
   id="g8">
<path
   style="stroke: none; stroke-width: 1; stroke-dasharray: none; stroke-linecap: butt; stroke-dashoffset: 0; stroke-linejoin: miter; stroke-miterlimit: 4; fill: rgb(92,82,163); fill-rule: nonzero; opacity: 1;"
   vector-effect="non-scaling-stroke"
   transform=" translate(-53.99, -125.47)"
   d="M 53.365 101.471 C 39.99 109.041 26.615000000000002 116.611 13.240000000000002 124.18100000000001 C 12.263000000000002 124.73400000000001 12.268000000000002 126.21800000000002 13.240000000000002 126.772 C 20.029000000000003 130.639 26.817 134.507 33.606 138.375 C 38.294000000000004 141.045 42.981 143.716 47.669000000000004 146.386 C 49.202000000000005 147.259 51.968 149.688 53.86300000000001 149.688 C 55.72800000000001 149.688 58.43900000000001 147.321 59.95100000000001 146.46599999999998 C 64.575 143.849 69.19900000000001 141.23199999999997 73.82300000000001 138.61399999999998 C 80.79700000000001 134.66599999999997 87.77100000000002 130.71899999999997 94.744 126.77199999999998 C 95.721 126.21899999999998 95.716 124.73499999999997 94.744 124.18099999999998 C 81.456 116.61099999999999 68.167 109.04099999999998 54.879 101.47099999999998 C 53.196 100.51199999999997 51.684999999999995 103.10399999999997 53.364999999999995 104.06199999999997 C 66.65299999999999 111.63199999999998 79.942 119.20199999999997 93.22999999999999 126.77199999999996 C 93.22999999999999 125.90799999999996 93.22999999999999 125.04499999999996 93.22999999999999 124.18099999999997 C 79.86299999999999 131.74699999999996 66.49599999999998 139.31299999999996 53.12899999999999 146.87899999999996 C 54.32899999999999 146.19999999999996 55.04399999999999 147.13499999999996 53.13499999999999 146.04799999999997 C 51.60699999999999 145.17699999999996 50.07899999999999 144.30699999999996 48.55099999999999 143.43599999999998 C 44.073999999999984 140.885 39.59599999999999 138.33399999999997 35.118999999999986 135.784 C 28.329999999999984 131.917 21.540999999999986 128.04899999999998 14.751999999999985 124.181 C 14.751999999999985 125.045 14.751999999999985 125.908 14.751999999999985 126.77199999999999 C 28.126999999999985 119.202 41.50199999999998 111.63199999999999 54.87699999999998 104.06199999999998 C 56.563 103.109 55.051 100.517 53.365 101.471 L 53.365 101.471 z"
   stroke-linecap="round"
   id="path7" />
</g>
<g
   transform="matrix(3.87 0 0 3.87 367.12 130.56)"
   id="g9">
<polyline
   style="stroke: none; stroke-width: 1; stroke-dasharray: none; stroke-linecap: butt; stroke-dashoffset: 0; stroke-linejoin: miter; stroke-miterlimit: 4; fill: rgb(35,31,32); fill-rule: nonzero; opacity: 1;"
   vector-effect="non-scaling-stroke"
   points="0.13,-23.72 -40.95,0 -0.13,23.72 0.17,23.55 -40.34,0 0.44,-23.54 40.95,0 0.13,-23.72 "
   id="polyline8" />
</g>
<g
   transform="matrix(3.87 0 0 3.87 366.12 314.26)"
   id="g10">
<polyline
   style="stroke: none; stroke-width: 1; stroke-dasharray: none; stroke-linecap: butt; stroke-dashoffset: 0; stroke-linejoin: miter; stroke-miterlimit: 4; fill: rgb(35,31,32); fill-rule: nonzero; opacity: 1;"
   vector-effect="non-scaling-stroke"
   points="0.14,-23.81 -40.64,-0.27 -40.95,-0.09 -40.64,0.09 0.17,23.81 -0.14,23.63 0.17,23.45 -40.33,-0.09 0.45,-23.63 40.95,-0.09 0.14,-23.81 "
   id="polyline9" />
</g>
<g
   transform="matrix(3.87 0 0 3.87 524.91 222.22)"
   id="g11">
<polyline
   style="stroke: none; stroke-width: 1; stroke-dasharray: none; stroke-linecap: butt; stroke-dashoffset: 0; stroke-linejoin: miter; stroke-miterlimit: 4; fill: rgb(35,31,32); fill-rule: nonzero; opacity: 1;"
   vector-effect="non-scaling-stroke"
   points="0.13,-23.72 -40.64,-0.17 -40.95,0 -0.13,23.72 0.17,23.55 -40.34,0.01 0.44,-23.54 40.95,0 0.13,-23.72 "
   id="polyline10" />
</g>
<g
   transform="matrix(3.87 0 0 3.87 684.31 130.21)"
   id="g12">
<polyline
   style="stroke: none; stroke-width: 1; stroke-dasharray: none; stroke-linecap: butt; stroke-dashoffset: 0; stroke-linejoin: miter; stroke-miterlimit: 4; fill: rgb(35,31,32); fill-rule: nonzero; opacity: 1;"
   vector-effect="non-scaling-stroke"
   points="0.3,-23.81 -0.02,-23.63 -40.8,-0.09 -41.11,0.09 -0.3,23.81 0.02,23.63 -40.49,0.09 0.29,-23.45 40.79,0.09 41.11,-0.09 0.3,-23.81 "
   id="polyline11" />
</g>
<g
   transform="matrix(4.4457462,0,0,4.1030584,533.81852,591.72459)"
   id="g13">
<polyline
   style="opacity:1;fill:#5c52a3;fill-rule:nonzero;stroke:none;stroke-width:1;stroke-linecap:butt;stroke-linejoin:miter;stroke-miterlimit:4;stroke-dasharray:none;stroke-dashoffset:0"
   vector-effect="non-scaling-stroke"
   points="-0.14,23.84 41.84,0 0.14,-23.84 -41.84,0 -0.14,23.84 "
   id="polyline12" />
</g>

<g
   transform="matrix(3.87 0 0 3.87 129.62 543.23)"
   id="g15">
<polyline
   style="stroke: none; stroke-width: 1; stroke-dasharray: none; stroke-linecap: butt; stroke-dashoffset: 0; stroke-linejoin: miter; stroke-miterlimit: 4; fill: rgb(35,31,32); fill-rule: nonzero; opacity: 1;"
   vector-effect="non-scaling-stroke"
   points="-20.48,-35.47 -20.35,11.74 20.48,35.47 20.48,35.12 -20.04,11.57 -20.17,-35.28 20.34,-11.74 -20.48,-35.47 "
   id="polyline14" />
</g>
<g
   transform="matrix(3.87 0 0 3.87 286.83 265.97)"
   id="g16">
<polyline
   style="stroke: none; stroke-width: 1; stroke-dasharray: none; stroke-linecap: butt; stroke-dashoffset: 0; stroke-linejoin: miter; stroke-miterlimit: 4; fill: rgb(73,43,129); fill-rule: nonzero; opacity: 1;"
   vector-effect="non-scaling-stroke"
   points="-20.32,-35.2 -20.19,11.66 20.32,35.2 20.19,-11.66 -20.32,-35.2 "
   id="polyline15" />
</g>
<g
   transform="matrix(3.87 0 0 3.87 288.46 816.43)"
   id="g17">
<polyline
   style="stroke: none; stroke-width: 1; stroke-dasharray: none; stroke-linecap: butt; stroke-dashoffset: 0; stroke-linejoin: miter; stroke-miterlimit: 4; fill: rgb(35,31,32); fill-rule: nonzero; opacity: 1;"
   vector-effect="non-scaling-stroke"
   points="-20.63,-35.22 -20.49,11.2 -20.49,11.55 -20.18,11.73 20.63,35.22 20.32,35.05 20.32,34.69 -20.18,11.37 -20.32,-35.04 20.19,-11.73 -20.63,-35.22 "
   id="polyline16" />
</g>
<g
   transform="matrix(3.87 0 0 3.87 287.37 634.89)"
   id="g18">
<polyline
   style="stroke: none; stroke-width: 1; stroke-dasharray: none; stroke-linecap: butt; stroke-dashoffset: 0; stroke-linejoin: miter; stroke-miterlimit: 4; fill: rgb(35,31,32); fill-rule: nonzero; opacity: 1;"
   vector-effect="non-scaling-stroke"
   points="-20.47,-35.46 -20.34,11.4 -20.34,11.74 20.47,35.46 20.47,35.12 -20.03,11.58 -20.17,-35.28 20.34,-11.74 -20.47,-35.46 "
   id="polyline17" />
</g>

<g
   transform="matrix(3.87 0 0 3.87 604.66 816.7)"
   id="g20">
<polyline
   style="stroke: none; stroke-width: 1; stroke-dasharray: none; stroke-linecap: butt; stroke-dashoffset: 0; stroke-linejoin: miter; stroke-miterlimit: 4; fill: rgb(73,43,129); fill-rule: nonzero; opacity: 1;"
   vector-effect="non-scaling-stroke"
   points="-20.32,-35.2 -20.19,11.66 20.32,35.2 20.19,-11.66 -20.32,-35.2 "
   id="polyline19" />
</g>

<g
   transform="matrix(3.8457346,0.09713577,-0.09866653,3.8269674,602.32053,447.59513)"
   id="g22">
<polyline
   style="opacity:1;fill:#492b81;fill-rule:nonzero;stroke:none;stroke-width:1;stroke-linecap:butt;stroke-linejoin:miter;stroke-miterlimit:4;stroke-dasharray:none;stroke-dashoffset:0"
   vector-effect="non-scaling-stroke"
   points="20.56,35.43 20.42,-11.73 -20.56,-35.43 -20.42,11.73 20.56,35.43 "
   id="polyline21" />
</g>
<g
   transform="matrix(3.87 0 0 3.87 130.18 542.9)"
   id="g23">
<polygon
   style="stroke: none; stroke-width: 1; stroke-dasharray: none; stroke-linecap: butt; stroke-dashoffset: 0; stroke-linejoin: miter; stroke-miterlimit: 4; fill: rgb(46,26,89); fill-rule: nonzero; opacity: 1;"
   vector-effect="non-scaling-stroke"
   points="-20.32,-35.2 -20.19,11.66 20.32,35.2 20.19,-11.66 "
   id="polygon22" />
</g>
<g
   transform="matrix(3.87 0 0 3.87 130.22 542.88)"
   id="g24">
<path
   style="stroke: none; stroke-width: 1; stroke-dasharray: none; stroke-linecap: butt; stroke-dashoffset: 0; stroke-linejoin: miter; stroke-miterlimit: 4; fill: rgb(46,26,89); fill-rule: nonzero; opacity: 1;"
   vector-effect="non-scaling-stroke"
   transform=" translate(-33.13, -160.86)"
   d="M 11.304 125.668 C 11.326 133.643 11.349 141.618 11.372 149.59300000000002 C 11.388 154.98000000000002 11.403 160.36700000000002 11.418 165.75500000000002 C 11.423 167.62100000000004 10.628 171.55400000000003 11.642 173.28400000000002 C 12.575999999999999 174.87900000000002 15.937 176.00600000000003 17.425 176.871 C 22.002000000000002 179.53 26.578000000000003 182.18900000000002 31.154 184.84900000000002 C 38.334 189.02200000000002 45.513999999999996 193.19500000000002 52.694 197.36700000000002 C 53.675000000000004 197.937 54.955000000000005 197.21200000000002 54.951 196.07200000000003 C 54.929 188.09700000000004 54.906 180.12300000000002 54.884 172.14800000000002 C 54.868 166.76100000000002 54.853 161.37400000000002 54.838 155.98700000000002 C 54.833 154.12000000000003 55.628 150.18800000000002 54.614000000000004 148.45700000000002 C 53.68000000000001 146.86300000000003 50.319 145.73600000000002 48.830000000000005 144.871 C 44.254000000000005 142.211 39.67700000000001 139.55200000000002 35.101000000000006 136.892 C 27.921000000000006 132.719 20.741000000000007 128.546 13.560000000000006 124.37299999999999 C 11.884000000000006 123.39899999999999 10.374000000000006 125.99199999999999 12.046000000000006 126.96399999999998 C 25.543000000000006 134.808 39.040000000000006 142.652 52.537000000000006 150.49499999999998 C 51.379000000000005 149.82199999999997 51.81600000000001 148.70699999999997 51.82300000000001 150.86499999999998 C 51.827000000000005 152.57199999999997 51.83200000000001 154.27899999999997 51.83700000000001 155.98699999999997 C 51.85200000000001 161.37399999999997 51.86700000000001 166.76099999999997 51.88300000000001 172.14799999999997 C 51.90500000000001 180.12299999999996 51.92800000000001 188.09699999999998 51.95000000000001 196.07199999999997 C 52.70200000000001 195.64 53.45500000000001 195.20899999999997 54.20700000000001 194.777 C 40.71000000000001 186.933 27.213000000000008 179.08999999999997 13.716000000000008 171.24699999999999 C 14.874000000000008 171.92 14.437000000000008 173.034 14.430000000000009 170.878 C 14.425000000000008 169.17 14.420000000000009 167.463 14.41600000000001 165.75599999999997 C 14.40000000000001 160.36799999999997 14.385000000000009 154.98099999999997 14.37000000000001 149.59399999999997 C 14.34800000000001 141.61899999999997 14.32500000000001 133.64399999999998 14.30200000000001 125.66899999999997 C 14.299 123.734 11.299 123.733 11.304 125.668 z"
   stroke-linecap="round"
   id="path23" />
</g>
<g
   transform="matrix(3.87 0 0 3.87 288.47 813.14)"
   id="g25">
<polygon
   style="stroke: none; stroke-width: 1; stroke-dasharray: none; stroke-linecap: butt; stroke-dashoffset: 0; stroke-linejoin: miter; stroke-miterlimit: 4; fill: rgb(46,26,89); fill-rule: nonzero; opacity: 1;"
   vector-effect="non-scaling-stroke"
   points="-20.32,-34.84 -20.18,11.54 20.32,34.84 20.19,-11.54 "
   id="polygon24" />
</g>
<g
   transform="matrix(3.87 0 0 3.87 288.5 813.11)"
   id="g26">
<path
   style="stroke: none; stroke-width: 1; stroke-dasharray: none; stroke-linecap: butt; stroke-dashoffset: 0; stroke-linejoin: miter; stroke-miterlimit: 4; fill: rgb(46,26,89); fill-rule: nonzero; opacity: 1;"
   vector-effect="non-scaling-stroke"
   transform=" translate(-74.08, -230.78)"
   d="M 52.261 195.951 C 52.284000000000006 204.012 52.307 212.07299999999998 52.330000000000005 220.134 C 52.346000000000004 225.47899999999998 52.361000000000004 230.82299999999998 52.376000000000005 236.16799999999998 C 52.38100000000001 237.897 51.657000000000004 241.47899999999998 52.598000000000006 243.08599999999998 C 53.529 244.67399999999998 56.895 245.78699999999998 58.38000000000001 246.641 C 62.95500000000001 249.273 67.53000000000002 251.905 72.105 254.53699999999998 C 79.283 258.666 86.461 262.796 93.63900000000001 266.92499999999995 C 94.62100000000001 267.48999999999995 95.9 266.77399999999994 95.89600000000002 265.62999999999994 C 95.87300000000002 257.5679999999999 95.85000000000001 249.50799999999992 95.82700000000001 241.44599999999994 C 95.811 236.10099999999994 95.796 230.75699999999995 95.781 225.41199999999995 C 95.77600000000001 223.68199999999996 96.5 220.09999999999994 95.55900000000001 218.49299999999994 C 94.62800000000001 216.90499999999994 91.26200000000001 215.79299999999995 89.77700000000002 214.93799999999993 C 85.20200000000001 212.30599999999993 80.62700000000001 209.67399999999992 76.05100000000002 207.04199999999994 C 68.87300000000002 202.91299999999995 61.695000000000014 198.78399999999993 54.51600000000002 194.65499999999994 C 52.83600000000002 193.68799999999993 51.32600000000002 196.28099999999995 53.00100000000002 197.24499999999995 C 66.49500000000002 205.00699999999995 79.98800000000001 212.76799999999994 93.48200000000003 220.52999999999994 C 92.31800000000003 219.86099999999993 92.76100000000002 218.74899999999994 92.76800000000003 220.92699999999994 C 92.77300000000002 222.65999999999994 92.77800000000003 224.39299999999994 92.78300000000003 226.12599999999995 C 92.79900000000004 231.56399999999994 92.81400000000004 237.00099999999995 92.83000000000003 242.43799999999996 C 92.85200000000003 250.16799999999995 92.87400000000002 257.89899999999994 92.89600000000003 265.628 C 93.64800000000002 265.19599999999997 94.40100000000002 264.765 95.15300000000003 264.33299999999997 C 81.65900000000003 256.57 68.16600000000004 248.80799999999996 54.67300000000004 241.04599999999996 C 55.83700000000004 241.71499999999997 55.394000000000034 242.82699999999997 55.387000000000036 240.64899999999997 C 55.38200000000003 238.91599999999997 55.37700000000004 237.18299999999996 55.372000000000035 235.44999999999996 C 55.35600000000004 230.01299999999995 55.34100000000004 224.57599999999996 55.32500000000004 219.13899999999995 C 55.30300000000004 211.40899999999996 55.28000000000004 203.67899999999995 55.25800000000004 195.94999999999996 C 55.256 194.017 52.256 194.017 52.261 195.951 z"
   stroke-linecap="round"
   id="path25" />
</g>
<g
   transform="matrix(3.7422736,0,0,3.87,288.6867,637.35154)"
   id="g27">
<polygon
   style="opacity:1;fill:#2e1a59;fill-rule:nonzero;stroke:none;stroke-width:1;stroke-linecap:butt;stroke-linejoin:miter;stroke-miterlimit:4;stroke-dasharray:none;stroke-dashoffset:0"
   vector-effect="non-scaling-stroke"
   points="-20.32,-35.2 -20.19,11.66 20.32,35.2 20.19,-11.66 "
   id="polygon26" />
</g>

<g
   transform="matrix(3.87,0,0,3.87,280.73855,453.43829)"
   id="g29">
<polygon
   style="opacity:1;fill:#2e1a59;fill-rule:nonzero;stroke:none;stroke-width:1;stroke-linecap:butt;stroke-linejoin:miter;stroke-miterlimit:4;stroke-dasharray:none;stroke-dashoffset:0"
   vector-effect="non-scaling-stroke"
   points="-20.19,11.66 20.32,35.2 20.19,-11.66 -20.32,-35.2 "
   id="polygon28" />
</g>
<g
   transform="matrix(3.5676405,0,0,3.7861807,277.76278,450.79823)"
   id="g30">
<path
   style="opacity:1;fill:#2e1a59;fill-rule:nonzero;stroke:none;stroke-width:1;stroke-linecap:butt;stroke-linejoin:miter;stroke-miterlimit:4;stroke-dasharray:none;stroke-dashoffset:0"
   vector-effect="non-scaling-stroke"
   transform="translate(-73.72,-137.38)"
   d="m 94.755,124.42 c -13.501,-7.845 -27.002,-15.691 -40.504,-23.537 -0.981,-0.57 -2.26,0.155 -2.257,1.295 0.022,7.975 0.045,15.949 0.067,23.923 0.015,5.387 0.03,10.774 0.045,16.161 0.005,1.867 -0.79,5.799 0.224,7.53 0.934,1.594 4.294,2.721 5.782,3.585 4.575,2.659 9.15,5.318 13.726,7.978 7.179,4.172 14.357,8.343 21.536,12.515 0.981,0.57 2.26,-0.155 2.257,-1.295 -0.044,-15.62 -0.089,-31.24 -0.133,-46.86 -0.005,-1.934 -3.005,-1.935 -3,0 0.044,15.62 0.089,31.24 0.133,46.86 0.752,-0.432 1.505,-0.863 2.257,-1.295 -13.494,-7.842 -26.987,-15.684 -40.481,-23.526 1.158,0.673 0.721,1.788 0.714,-0.369 -0.004,-1.708 -0.009,-3.415 -0.014,-5.122 -0.015,-5.387 -0.03,-10.774 -0.045,-16.161 -0.022,-7.975 -0.045,-15.949 -0.067,-23.923 -0.752,0.432 -1.505,0.863 -2.257,1.295 13.501,7.845 27.002,15.691 40.503,23.537 1.676,0.973 3.185,-1.619 1.514,-2.591 z"
   stroke-linecap="round"
   id="path29" />
</g>
<g
   transform="matrix(4.3158655,0,0,4.1743588,440.54688,716.30052)"
   id="g31">
<polygon
   style="opacity:1;fill:#2e1a59;fill-rule:nonzero;stroke:none;stroke-width:1;stroke-linecap:butt;stroke-linejoin:miter;stroke-miterlimit:4;stroke-dasharray:none;stroke-dashoffset:0"
   vector-effect="non-scaling-stroke"
   points="-20.19,11.54 20.32,34.85 20.19,-11.54 -20.32,-34.85 "
   id="polygon30"
   transform="matrix(0.97489975,0,0,0.94016603,0.51003709,2.0852138)" />
</g>

<g
   transform="matrix(3.9687668,0,0,4.0404828,370.28513,130.55513)"
   id="g33">
<polygon
   style="opacity:1;fill:#60208a;fill-rule:nonzero;stroke:none;stroke-width:1;stroke-linecap:butt;stroke-linejoin:miter;stroke-miterlimit:4;stroke-dasharray:none;stroke-dashoffset:0"
   vector-effect="non-scaling-stroke"
   points="-40.65,0 -0.13,23.55 40.65,0 0.13,-23.55 "
   id="polygon32" />
</g>

<g
   transform="matrix(3.87 0 0 3.87 368.29 312.63)"
   id="g35">
<polygon
   style="stroke: none; stroke-width: 1; stroke-dasharray: none; stroke-linecap: butt; stroke-dashoffset: 0; stroke-linejoin: miter; stroke-miterlimit: 4; fill: rgb(96,32,138); fill-rule: nonzero; opacity: 1;"
   vector-effect="non-scaling-stroke"
   points="-40.39,0 -0.14,23.88 40.39,0 0.14,-23.88 "
   id="polygon34" />
</g>
<g
   transform="matrix(3.87 0 0 3.87 368.31 312.63)"
   id="g36">
<path
   style="stroke: none; stroke-width: 1; stroke-dasharray: none; stroke-linecap: butt; stroke-dashoffset: 0; stroke-linejoin: miter; stroke-miterlimit: 4; fill: rgb(96,32,138); fill-rule: nonzero; opacity: 1;"
   vector-effect="non-scaling-stroke"
   transform=" translate(-94.7, -101.3)"
   d="M 53.549 102.601 C 66.967 110.559 80.386 118.517 93.804 126.476 C 94.263 126.748 94.85900000000001 126.747 95.319 126.476 C 108.828 118.515 122.338 110.554 135.847 102.594 C 136.821 102.02 136.816 100.57799999999999 135.847 100.003 C 122.429 92.045 109.01 84.087 95.59200000000001 76.129 C 95.13300000000001 75.857 94.537 75.858 94.07700000000001 76.129 C 80.568 84.089 67.059 92.05 53.549 100.01 C 51.884 100.991 53.393 103.58500000000001 55.064 102.601 C 68.565 94.645 82.06700000000001 86.689 95.568 78.733 C 94.404 79.41900000000001 93.619 78.447 95.496 79.56 C 96.963 80.43 98.429 81.3 99.896 82.17 C 104.524 84.915 109.152 87.659 113.78 90.404 C 120.631 94.467 127.482 98.53 134.332 102.59299999999999 C 134.332 101.72899999999998 134.332 100.86599999999999 134.332 100.002 C 120.83099999999999 107.958 107.329 115.91499999999999 93.828 123.871 C 94.992 123.18499999999999 95.777 124.157 93.9 123.044 C 92.433 122.17399999999999 90.96700000000001 121.304 89.5 120.434 C 84.872 117.689 80.244 114.945 75.616 112.2 C 68.765 108.137 61.914 104.074 55.064 100.011 C 53.395 99.021 51.887 101.615 53.549 102.601 z"
   stroke-linecap="round"
   id="path35" />
</g>
<g
   transform="matrix(3.87 0 0 3.87 526.09 222.24)"
   id="g37">
<polygon
   style="stroke: rgb(96,32,138); stroke-width: 1; stroke-dasharray: none; stroke-linecap: butt; stroke-dashoffset: 0; stroke-linejoin: miter; stroke-miterlimit: 10; fill: rgb(96,32,138); fill-rule: nonzero; opacity: 1;"
   vector-effect="non-scaling-stroke"
   points="0.14,-23.54 -40.64,0 -0.14,23.54 40.64,0 "
   id="polygon36" />
</g>
<g
   transform="matrix(3.87 0 0 3.87 684.9 130.55)"
   id="g38">
<polygon
   style="stroke: none; stroke-width: 1; stroke-dasharray: none; stroke-linecap: butt; stroke-dashoffset: 0; stroke-linejoin: miter; stroke-miterlimit: 4; fill: rgb(96,32,138); fill-rule: nonzero; opacity: 1;"
   vector-effect="non-scaling-stroke"
   points="40.64,0 0.14,-23.54 -40.64,0 -0.14,23.54 "
   id="polygon37" />
</g>
<g
   transform="matrix(3.7746966,0,0,3.7096553,680.88476,134.57447)"
   id="g39">
<path
   style="opacity:1;fill:#60208a;fill-rule:nonzero;stroke:none;stroke-width:1;stroke-linecap:butt;stroke-linejoin:miter;stroke-miterlimit:4;stroke-dasharray:none;stroke-dashoffset:0"
   vector-effect="non-scaling-stroke"
   transform="translate(-176.62,-54.2)"
   d="m 218.014,52.9 c -13.5,-7.846 -27,-15.692 -40.501,-23.539 -0.466,-0.271 -1.048,-0.269 -1.514,0 -13.594,7.848 -27.187,15.696 -40.78,23.544 -0.976,0.563 -0.971,2.026 0,2.591 13.501,7.846 27.002,15.692 40.503,23.538 0.466,0.271 1.048,0.269 1.514,0 13.593,-7.848 27.186,-15.696 40.778,-23.544 1.675,-0.967 0.165,-3.56 -1.514,-2.591 -13.585,7.844 -27.17,15.687 -40.754,23.53 1.175,-0.678 1.941,0.276 0.063,-0.815 -1.476,-0.857 -2.951,-1.715 -4.427,-2.573 -4.656,-2.706 -9.313,-5.412 -13.969,-8.118 -6.893,-4.006 -13.786,-8.012 -20.68,-12.018 0,0.864 0,1.727 0,2.591 13.585,-7.844 27.171,-15.687 40.756,-23.531 -1.175,0.678 -1.941,-0.276 -0.063,0.815 1.476,0.857 2.952,1.715 4.427,2.573 4.656,2.706 9.313,5.413 13.969,8.119 6.893,4.006 13.786,8.012 20.679,12.018 1.675,0.974 3.185,-1.618 1.513,-2.59 z"
   stroke-linecap="round"
   id="path38" />
</g>
<g
   transform="matrix(3.87 0 0 3.87 844.28 401.98)"
   id="g40">
<polyline
   style="stroke: none; stroke-width: 1; stroke-dasharray: none; stroke-linecap: butt; stroke-dashoffset: 0; stroke-linejoin: miter; stroke-miterlimit: 4; fill: rgb(92,82,163); fill-rule: nonzero; opacity: 1;"
   vector-effect="non-scaling-stroke"
   points="0.14,-23.54 -40.65,0 -0.13,23.54 40.65,0 0.14,-23.54 "
   id="polyline39" />
</g>
<g
   transform="matrix(3.87 0 0 3.87 844.32 401.96)"
   id="g41">
<path
   style="stroke: none; stroke-width: 1; stroke-dasharray: none; stroke-linecap: butt; stroke-dashoffset: 0; stroke-linejoin: miter; stroke-miterlimit: 4; fill: rgb(92,82,163); fill-rule: nonzero; opacity: 1;"
   vector-effect="non-scaling-stroke"
   transform=" translate(-217.86, -124.41)"
   d="M 217.235 99.579 C 203.64100000000002 107.42699999999999 190.04700000000003 115.274 176.454 123.121 C 175.479 123.684 175.483 125.14699999999999 176.454 125.71199999999999 C 189.96 133.56 203.466 141.409 216.972 149.257 C 217.43800000000002 149.528 218.02 149.526 218.48600000000002 149.257 C 232.07800000000003 141.409 245.67000000000002 133.562 259.261 125.715 C 260.237 125.152 260.232 123.68900000000001 259.261 123.12400000000001 C 245.75800000000004 115.27600000000001 232.25400000000002 107.427 218.75000000000003 99.57900000000001 C 217.07400000000004 98.605 215.56400000000002 101.19800000000001 217.23500000000004 102.17 C 230.73900000000003 110.018 244.24300000000005 117.867 257.74700000000007 125.715 C 257.74700000000007 124.851 257.74700000000007 123.988 257.74700000000007 123.12400000000001 C 244.16300000000007 130.967 230.57900000000006 138.81 216.99600000000007 146.65300000000002 C 218.17100000000008 145.97500000000002 218.93700000000007 146.92900000000003 217.05900000000005 145.83800000000002 C 215.58300000000006 144.98000000000002 214.10600000000005 144.122 212.63000000000005 143.264 C 207.97200000000007 140.55700000000002 203.31400000000005 137.85000000000002 198.65500000000006 135.143 C 191.76000000000005 131.136 184.86400000000006 127.129 177.96900000000005 123.122 C 177.96900000000005 123.986 177.96900000000005 124.849 177.96900000000005 125.713 C 191.56300000000005 117.865 205.15700000000004 110.018 218.75000000000006 102.17099999999999 C 220.424 101.203 218.914 98.61 217.235 99.579 L 217.235 99.579 z"
   stroke-linecap="round"
   id="path40" />
</g>
<g
   transform="matrix(3.87,0,0,3.8897446,605.08,724.23086)"
   id="g42">
<polygon
   style="opacity:1;fill:#ffffff;fill-rule:nonzero;stroke:none;stroke-width:1;stroke-linecap:butt;stroke-linejoin:miter;stroke-miterlimit:4;stroke-dasharray:none;stroke-dashoffset:0"
   vector-effect="non-scaling-stroke"
   points="-19.94,33.89 20.04,11.23 19.94,-33.89 -20.04,-11.24 "
   id="polygon41" />
</g>
<g
   transform="matrix(3.8078797,0,0,3.87,606.41857,724.91)"
   id="g43">
<path
   style="opacity:1;fill:#ffffff;fill-rule:nonzero;stroke:none;stroke-width:1;stroke-linecap:butt;stroke-linejoin:miter;stroke-miterlimit:4;stroke-dasharray:none;stroke-dashoffset:0"
   vector-effect="non-scaling-stroke"
   transform="translate(-155.99,-207.96)"
   d="m 134.451,196.723 c 0.034,15.043 0.068,30.085 0.102,45.128 0.002,1.147 1.269,1.855 2.257,1.295 13.328,-7.552 26.657,-15.104 39.985,-22.657 0.458,-0.259 0.744,-0.772 0.743,-1.295 -0.035,-15.042 -0.069,-30.085 -0.104,-45.127 -0.002,-1.147 -1.269,-1.855 -2.257,-1.295 -13.328,7.552 -26.656,15.104 -39.983,22.656 -1.683,0.953 -0.171,3.545 1.514,2.59 13.328,-7.552 26.656,-15.104 39.984,-22.656 -0.752,-0.432 -1.505,-0.863 -2.257,-1.295 0.017,7.521 0.035,15.042 0.052,22.563 0.012,5.171 0.023,10.342 0.036,15.513 0.003,1.629 0.007,3.259 0.011,4.889 0.001,0.488 0.002,0.978 0.003,1.466 0.003,1.333 -0.201,-0.063 0.719,-0.585 -13.32,7.548 -26.641,15.096 -39.961,22.644 0.752,0.432 1.505,0.863 2.257,1.295 -0.034,-15.043 -0.068,-30.085 -0.102,-45.128 -0.003,-1.936 -3.003,-1.936 -2.999,-10e-4 z"
   stroke-linecap="round"
   id="path42" />
</g>
<g
   transform="matrix(3.87 0 0 3.87 762.28 634.55)"
   id="g44">
<polygon
   style="stroke: none; stroke-width: 1; stroke-dasharray: none; stroke-linecap: butt; stroke-dashoffset: 0; stroke-linejoin: miter; stroke-miterlimit: 4; fill: rgb(255,255,255); fill-rule: nonzero; opacity: 1;"
   vector-effect="non-scaling-stroke"
   points="20.32,-35.19 -20.46,-11.65 -20.32,35.2 20.46,11.65 "
   id="polygon43" />
</g>
<g
   transform="matrix(3.87 0 0 3.87 762.31 634.57)"
   id="g45">
<path
   style="stroke: none; stroke-width: 1; stroke-dasharray: none; stroke-linecap: butt; stroke-dashoffset: 0; stroke-linejoin: miter; stroke-miterlimit: 4; fill: rgb(255,255,255); fill-rule: nonzero; opacity: 1;"
   vector-effect="non-scaling-stroke"
   transform=" translate(-196.67, -184.59)"
   d="M 216.992 146.892 C 203.399 154.74099999999999 189.80499999999998 162.588 176.212 170.437 C 175.94 170.59400000000002 176.18699999999998 173.28300000000002 176.188 173.602 C 176.232 189.217 176.27599999999998 204.832 176.32 220.448 C 176.32 220.58 176.45499999999998 222.219 176.344 222.28300000000002 C 189.93699999999998 214.436 203.531 206.58900000000003 217.124 198.74200000000002 C 217.396 198.585 217.149 195.895 217.148 195.57700000000003 C 217.10399999999998 179.961 217.06 164.34500000000003 217.016 148.72800000000004 C 217.006 145.21000000000004 216.964 148.52400000000003 216.968 150.05700000000004 C 217.012 165.67400000000004 217.05599999999998 181.29000000000005 217.1 196.90700000000004 C 217.108 195.85100000000003 217.11599999999999 194.79700000000003 217.124 193.74200000000005 C 203.531 201.58900000000006 189.93699999999998 209.43600000000004 176.344 217.28300000000004 C 176.352 217.89400000000003 176.35999999999999 218.50700000000003 176.368 219.11800000000005 C 176.32399999999998 203.50300000000004 176.28 187.88800000000006 176.236 172.27200000000005 C 176.22799999999998 173.32800000000006 176.22 174.38200000000006 176.212 175.43700000000004 C 189.80499999999998 167.58800000000005 203.399 159.74100000000004 216.992 151.89200000000005 C 217.741 151.459 216.299 147.292 216.992 146.892 z"
   stroke-linecap="round"
   id="path44" />
</g>
<g
   transform="matrix(3.87 0 0 3.87 923.17 541.32)"
   id="g46">
<polygon
   style="stroke: none; stroke-width: 1; stroke-dasharray: none; stroke-linecap: butt; stroke-dashoffset: 0; stroke-linejoin: miter; stroke-miterlimit: 4; fill: rgb(255,255,255); fill-rule: nonzero; opacity: 1;"
   vector-effect="non-scaling-stroke"
   points="20.86,-35.6 -20.99,-11.78 -20.85,35.6 20.99,11.78 "
   id="polygon45" />
</g>
<g
   transform="matrix(3.87 0 0 3.87 923.17 541.29)"
   id="g47">
<path
   style="stroke: none; stroke-width: 1; stroke-dasharray: none; stroke-linecap: butt; stroke-dashoffset: 0; stroke-linejoin: miter; stroke-miterlimit: 4; fill: rgb(255,255,255); fill-rule: nonzero; opacity: 1;"
   vector-effect="non-scaling-stroke"
   transform=" translate(-238.29, -160.45)"
   d="M 258.392 123.56 C 244.44299999999998 131.499 230.494 139.439 216.54399999999998 147.37800000000001 C 216.087 147.638 215.79999999999998 148.15 215.801 148.673 C 215.84699999999998 164.468 215.893 180.264 215.94 196.059 C 215.94299999999998 197.20499999999998 217.209 197.916 218.197 197.35399999999998 C 232.144 189.416 246.092 181.476 260.04 173.53699999999998 C 260.497 173.277 260.78400000000005 172.766 260.783 172.242 C 260.73900000000003 156.446 260.694 140.65099999999998 260.649 124.85499999999999 C 260.644 122.91999999999999 257.644 122.91999999999999 257.649 124.85499999999999 C 257.671 132.753 257.693 140.64999999999998 257.716 148.548 C 257.731 153.978 257.747 159.407 257.762 164.837 C 257.767 166.62599999999998 257.772 168.416 257.777 170.20499999999998 C 257.784 172.594 257.255 171.67 258.503 170.95899999999997 C 244.563 178.89399999999998 230.623 186.82899999999998 216.683 194.76399999999998 C 217.435 195.19599999999997 218.188 195.62699999999998 218.94 196.05899999999997 C 218.917 188.16199999999998 218.894 180.26399999999998 218.871 172.36699999999996 C 218.85500000000002 166.93699999999995 218.839 161.50799999999995 218.823 156.07799999999997 C 218.818 154.28799999999998 218.81300000000002 152.49899999999997 218.80700000000002 150.70999999999998 C 218.8 148.32099999999997 219.329 149.24599999999998 218.08100000000002 149.956 C 232.02200000000002 142.021 245.96400000000003 134.08599999999998 259.906 126.15099999999998 C 261.587 125.194 260.076 122.602 258.392 123.56 z"
   stroke-linecap="round"
   id="path46" />
</g>
<g
   transform="matrix(3.87 0 0 3.87 762.82 814.43)"
   id="g48">
<polygon
   style="stroke: none; stroke-width: 1; stroke-dasharray: none; stroke-linecap: butt; stroke-dashoffset: 0; stroke-linejoin: miter; stroke-miterlimit: 4; fill: rgb(255,255,255); fill-rule: nonzero; opacity: 1;"
   vector-effect="non-scaling-stroke"
   points="-20.46,-11.43 -20.33,34.52 20.45,11.43 20.32,-34.52 "
   id="polygon47" />
</g>
<g
   transform="matrix(3.87 0 0 3.87 762.82 814.43)"
   id="g49">
<path
   style="stroke: none; stroke-width: 1; stroke-dasharray: none; stroke-linecap: butt; stroke-dashoffset: 0; stroke-linejoin: miter; stroke-miterlimit: 4; fill: rgb(255,255,255); fill-rule: nonzero; opacity: 1;"
   vector-effect="non-scaling-stroke"
   transform=" translate(-196.8, -231.12)"
   d="M 174.847 219.687 C 174.89000000000001 235.006 174.934 250.32500000000002 174.977 265.644 C 174.98 266.791 176.246 267.498 177.234 266.939 C 190.827 259.243 204.42100000000002 251.54500000000002 218.013 243.848 C 218.47 243.58900000000003 218.758 243.07600000000002 218.756 242.55300000000003 C 218.713 227.235 218.669 211.91500000000002 218.626 196.59700000000004 C 218.62300000000002 195.45000000000005 217.357 194.74300000000002 216.369 195.30200000000005 C 202.776 202.99800000000005 189.182 210.69500000000005 175.59 218.39200000000005 C 173.907 219.34400000000005 175.418 221.93700000000004 177.104 220.98200000000006 C 190.698 213.28600000000006 204.29100000000003 205.58900000000006 217.88400000000001 197.89200000000005 C 217.132 197.46000000000006 216.37900000000002 197.02900000000005 215.627 196.59700000000007 C 215.648 204.09000000000006 215.669 211.58200000000005 215.691 219.07600000000008 C 215.706 224.31800000000007 215.72 229.5600000000001 215.735 234.80300000000008 C 215.74 236.6730000000001 215.746 238.5420000000001 215.751 240.4120000000001 C 215.752 240.8960000000001 215.75300000000001 241.38100000000009 215.755 241.8640000000001 C 215.759 243.19000000000008 215.55599999999998 241.7930000000001 216.476 241.27200000000008 C 202.891 248.96400000000008 189.30599999999998 256.6570000000001 175.72 264.3490000000001 C 176.472 264.7810000000001 177.225 265.2120000000001 177.977 265.6440000000001 C 177.934 250.32500000000013 177.89000000000001 235.0060000000001 177.847 219.68700000000013 C 177.841 217.752 174.841 217.752 174.847 219.687 z"
   stroke-linecap="round"
   id="path48" />
</g>
<g
   transform="matrix(3.9354261,0,0,3.8509902,764.15862,266.61914)"
   id="g50">
<polygon
   style="opacity:1;fill:#ffffff;fill-rule:nonzero;stroke:none;stroke-width:1;stroke-linecap:butt;stroke-linejoin:miter;stroke-miterlimit:4;stroke-dasharray:none;stroke-dashoffset:0"
   vector-effect="non-scaling-stroke"
   points="-20.46,-11.65 -20.33,35.2 20.45,11.65 20.32,-35.2 "
   id="polygon49" />
</g>
<g
   transform="matrix(3.87 0 0 3.87 760.45 452.11)"
   id="g51">
<polygon
   style="stroke: none; stroke-width: 1; stroke-dasharray: none; stroke-linecap: butt; stroke-dashoffset: 0; stroke-linejoin: miter; stroke-miterlimit: 4; fill: rgb(255,255,255); fill-rule: nonzero; opacity: 1;"
   vector-effect="non-scaling-stroke"
   points="19.71,-35.2 -19.84,-11.66 -19.71,35.2 19.84,11.66 "
   id="polygon50" />
</g>
<g
   transform="matrix(3.87,0,0,3.895778,760.44,451.13365)"
   id="g52">
<path
   style="opacity:1;fill:#ffffff;fill-rule:nonzero;stroke:none;stroke-width:1;stroke-linecap:butt;stroke-linejoin:miter;stroke-miterlimit:4;stroke-dasharray:none;stroke-dashoffset:0"
   vector-effect="non-scaling-stroke"
   transform="translate(-196.19,-137.37)"
   d="m 215.147,100.883 c -6.875,4.092 -13.751,8.184 -20.626,12.275 -4.559,2.713 -9.117,5.426 -13.676,8.139 -1.5,0.893 -4.849,2.054 -5.793,3.666 -0.928,1.584 -0.192,5.122 -0.188,6.824 0.015,5.293 0.03,10.587 0.044,15.88 0.023,8.306 0.046,16.61 0.069,24.916 0.003,1.129 1.274,1.88 2.257,1.295 6.875,-4.093 13.75,-8.186 20.625,-12.278 4.558,-2.713 9.117,-5.427 13.675,-8.141 1.5,-0.893 4.849,-2.055 5.793,-3.666 0.928,-1.585 0.193,-5.122 0.188,-6.824 -0.014,-5.292 -0.028,-10.585 -0.043,-15.878 -0.022,-8.304 -0.045,-16.608 -0.067,-24.913 -0.005,-1.935 -3.005,-1.935 -3,0 0.042,15.61 0.084,31.22 0.127,46.829 -0.004,-1.341 1.172,-1.523 -0.689,-0.415 -1.478,0.88 -2.956,1.76 -4.434,2.64 -4.637,2.761 -9.274,5.521 -13.912,8.281 -6.593,3.925 -13.185,7.85 -19.777,11.774 0.752,0.432 1.504,0.863 2.257,1.295 -0.043,-15.612 -0.086,-31.224 -0.13,-46.835 0.004,1.341 -1.172,1.523 0.689,0.415 1.478,-0.879 2.956,-1.759 4.434,-2.639 4.638,-2.76 9.275,-5.52 13.913,-8.279 6.593,-3.924 13.186,-7.847 19.778,-11.771 1.661,-0.987 0.153,-3.581 -1.514,-2.59 z"
   stroke-linecap="round"
   id="path51" />
</g>
<g
   transform="matrix(3.8459575,0,0,3.7899537,678.03631,306.30855)"
   id="g53">
<polygon
   style="opacity:1;fill:#60208a;fill-rule:nonzero;stroke:none;stroke-width:1;stroke-linecap:butt;stroke-linejoin:miter;stroke-miterlimit:4;stroke-dasharray:none;stroke-dashoffset:0"
   vector-effect="non-scaling-stroke"
   points="39.36,0 0.13,-22.63 -39.36,0 -0.13,22.63 "
   id="polygon52" />
</g>
<g
   transform="matrix(3.87 0 0 3.87 677.13 308.12)"
   id="g54">
<path
   style="stroke: none; stroke-width: 1; stroke-dasharray: none; stroke-linecap: butt; stroke-dashoffset: 0; stroke-linejoin: miter; stroke-miterlimit: 4; fill: rgb(96,32,138); fill-rule: nonzero; opacity: 1;"
   vector-effect="non-scaling-stroke"
   transform=" translate(-174.61, -100.14)"
   d="M 134.486 101.436 C 141.314 105.375 148.141 109.313 154.968 113.25200000000001 C 159.387 115.802 163.807 118.35100000000001 168.226 120.90100000000001 C 169.766 121.78900000000002 172.567 124.27600000000001 174.477 124.27600000000001 C 176.193 124.27600000000001 178.64000000000001 122.11900000000001 180.02100000000002 121.32700000000001 C 184.578 118.71500000000002 189.13500000000002 116.10300000000001 193.692 113.49100000000001 C 200.703 109.47200000000001 207.71300000000002 105.45400000000001 214.72500000000002 101.436 C 215.70000000000002 100.876 215.69600000000003 99.406 214.72500000000002 98.84500000000001 C 207.89700000000002 94.90700000000001 201.07000000000002 90.96900000000001 194.24300000000002 87.031 C 189.824 84.482 185.40400000000002 81.933 180.985 79.384 C 179.44500000000002 78.496 176.644 76.01 174.734 76.01 C 173.018 76.01 170.571 78.167 169.19 78.958 C 164.633 81.57 160.076 84.181 155.519 86.792 C 148.508 90.81 141.498 94.828 134.486 98.845 C 132.809 99.806 134.319 102.399 136.00099999999998 101.43599999999999 C 149.15599999999998 93.89699999999999 162.31199999999998 86.35799999999999 175.46699999999998 78.81899999999999 C 174.26899999999998 79.50599999999999 173.557 78.56199999999998 175.47899999999998 79.67099999999999 C 177.022 80.56099999999999 178.565 81.451 180.10799999999998 82.341 C 184.60299999999998 84.934 189.099 87.52699999999999 193.59399999999997 90.11999999999999 C 200.13299999999995 93.892 206.67199999999997 97.66399999999999 213.21099999999996 101.43599999999999 C 213.21099999999996 100.57199999999999 213.21099999999996 99.70899999999999 213.21099999999996 98.845 C 200.05599999999995 106.386 186.89999999999995 113.926 173.74499999999995 121.466 C 174.94299999999996 120.779 175.65499999999994 121.723 173.73299999999995 120.61399999999999 C 172.18999999999994 119.72299999999998 170.64699999999993 118.83299999999998 169.10399999999996 117.94299999999998 C 164.60899999999995 115.34899999999999 160.11299999999994 112.75599999999999 155.61799999999997 110.16199999999998 C 149.07899999999998 106.38999999999997 142.53999999999996 102.61699999999998 136.00099999999998 98.84399999999998 C 134.322 97.876 132.812 100.469 134.486 101.436 z"
   stroke-linecap="round"
   id="path53" />
</g>
<g
   transform="matrix(4.2044048,0,0,3.9692745,442.416,452.17517)"
   id="g55">
<polygon
   style="opacity:1;fill:#ffffff;fill-rule:nonzero;stroke:none;stroke-width:1;stroke-linecap:butt;stroke-linejoin:miter;stroke-miterlimit:4;stroke-dasharray:none;stroke-dashoffset:0"
   vector-effect="non-scaling-stroke"
   points="20.32,-34.28 -20.46,-11.35 -20.32,34.28 20.46,11.35 "
   id="polygon54" />
</g>
</svg>
