<?xml version="1.0" encoding="UTF-8" standalone="no"?>
<!-- Created with Inkscape (http://www.inkscape.org/) -->

<svg
   width="900"
   height="1000"
   viewBox="0 0 238.12501 264.58334"
   version="1.1"
   id="svg1"
   inkscape:version="1.4.2 (f4327f4, 2025-05-13)"
   sodipodi:docname="logo_text_square.svg"
   inkscape:export-filename="logo_text_square.png"
   inkscape:export-xdpi="96"
   inkscape:export-ydpi="96"
   xmlns:inkscape="http://www.inkscape.org/namespaces/inkscape"
   xmlns:sodipodi="http://sodipodi.sourceforge.net/DTD/sodipodi-0.dtd"
   xmlns="http://www.w3.org/2000/svg"
   xmlns:svg="http://www.w3.org/2000/svg">
  <sodipodi:namedview
     id="namedview1"
     pagecolor="#ffffff"
     bordercolor="#000000"
     borderopacity="0.25"
     inkscape:showpageshadow="2"
     inkscape:pageopacity="0.0"
     inkscape:pagecheckerboard="0"
     inkscape:deskcolor="#d1d1d1"
     inkscape:document-units="mm"
     inkscape:zoom="0.71891835"
     inkscape:cx="483.36504"
     inkscape:cy="461.10939"
     inkscape:window-width="1920"
     inkscape:window-height="1009"
     inkscape:window-x="-8"
     inkscape:window-y="-8"
     inkscape:window-maximized="1"
     inkscape:current-layer="layer1" />
  <defs
     id="defs1" />
  <g
     inkscape:label="Layer 1"
     inkscape:groupmode="layer"
     id="layer1">
    <g
       transform="matrix(0.84025105,0,0,0.85449555,135.90677,112.8267)"
       id="g4">
      <polyline
         style="opacity:1;fill:#231f20;fill-rule:nonzero;stroke:none;stroke-width:1;stroke-linecap:butt;stroke-linejoin:miter;stroke-miterlimit:4;stroke-dasharray:none;stroke-dashoffset:0"
         vector-effect="non-scaling-stroke"
         points="20.48,-35.65 -20.61,-11.93 -20.48,35.65 -20.48,35.29 -20.17,35.11 -20.3,-11.75 20.48,-35.29 20.61,11.57 20.48,-35.65 "
         id="polyline3" />
    </g>
    <g
       transform="matrix(0.84025105,0,0,0.85449555,170.38314,92.429226)"
       id="g5">
      <polyline
         style="opacity:1;fill:#231f20;fill-rule:nonzero;stroke:none;stroke-width:1;stroke-linecap:butt;stroke-linejoin:miter;stroke-miterlimit:4;stroke-dasharray:none;stroke-dashoffset:0"
         vector-effect="non-scaling-stroke"
         points="20.47,-35.47 -20.61,-11.75 -20.47,35.47 -20.17,35.29 -20.31,-11.57 20.47,-35.11 20.61,11.75 20.47,-35.47 "
         id="polyline4" />
    </g>
    <g
       transform="matrix(0.84025105,0,0,0.85449555,101.64746,173.08742)"
       id="g6">
      <polyline
         style="opacity:1;fill:#ffffff;fill-rule:nonzero;stroke:none;stroke-width:1;stroke-linecap:butt;stroke-linejoin:miter;stroke-miterlimit:4;stroke-dasharray:none;stroke-dashoffset:0"
         vector-effect="non-scaling-stroke"
         points="20.32,-35.2 -20.46,-11.66 -20.32,35.2 20.46,11.66 20.32,-35.2 "
         id="polyline5" />
    </g>
    <g
       transform="matrix(0.84025105,0,0,0.85449555,50.668028,82.415956)"
       id="g7">
      <polyline
         style="opacity:1;fill:#5c52a3;fill-rule:nonzero;stroke:none;stroke-width:1;stroke-linecap:butt;stroke-linejoin:miter;stroke-miterlimit:4;stroke-dasharray:none;stroke-dashoffset:0"
         vector-effect="non-scaling-stroke"
         points="0.13,-22.71 -39.99,0 -0.13,22.71 39.99,0 0.13,-22.71 "
         id="polyline6" />
    </g>
    <g
       transform="matrix(0.84025105,0,0,0.85449555,50.670193,82.413738)"
       id="g8">
      <path
         style="opacity:1;fill:#5c52a3;fill-rule:nonzero;stroke:none;stroke-width:1;stroke-linecap:butt;stroke-linejoin:miter;stroke-miterlimit:4;stroke-dasharray:none;stroke-dashoffset:0"
         vector-effect="non-scaling-stroke"
         transform="translate(-53.99,-125.47)"
         d="m 53.365,101.471 c -13.375,7.57 -26.75,15.14 -40.125,22.71 -0.977,0.553 -0.972,2.037 0,2.591 6.789,3.867 13.577,7.735 20.366,11.603 4.688,2.67 9.375,5.341 14.063,8.011 1.533,0.873 4.299,3.302 6.194,3.302 1.865,0 4.576,-2.367 6.088,-3.222 4.624,-2.617 9.248,-5.234 13.872,-7.852 6.974,-3.948 13.948,-7.895 20.921,-11.842 0.977,-0.553 0.972,-2.037 0,-2.591 -13.288,-7.57 -26.577,-15.14 -39.865,-22.71 -1.683,-0.959 -3.194,1.633 -1.514,2.591 13.288,7.57 26.577,15.14 39.865,22.71 0,-0.864 0,-1.727 0,-2.591 -13.367,7.566 -26.734,15.132 -40.101,22.698 1.2,-0.679 1.915,0.256 0.006,-0.831 -1.528,-0.871 -3.056,-1.741 -4.584,-2.612 -4.477,-2.551 -8.955,-5.102 -13.432,-7.652 -6.789,-3.867 -13.578,-7.735 -20.367,-11.603 0,0.864 0,1.727 0,2.591 13.375,-7.57 26.75,-15.14 40.125,-22.71 1.686,-0.953 0.174,-3.545 -1.512,-2.591 z"
         stroke-linecap="round"
         id="path7" />
    </g>
    <g
       transform="matrix(0.84025105,0,0,0.85449555,84.57766,21.587793)"
       id="g9">
      <polyline
         style="opacity:1;fill:#231f20;fill-rule:nonzero;stroke:none;stroke-width:1;stroke-linecap:butt;stroke-linejoin:miter;stroke-miterlimit:4;stroke-dasharray:none;stroke-dashoffset:0"
         vector-effect="non-scaling-stroke"
         points="0.13,-23.72 -40.95,0 -0.13,23.72 0.17,23.55 -40.34,0 0.44,-23.54 40.95,0 0.13,-23.72 "
         id="polyline8" />
    </g>
    <g
       transform="matrix(0.84025105,0,0,0.85449555,84.360557,62.148732)"
       id="g10">
      <polyline
         style="opacity:1;fill:#231f20;fill-rule:nonzero;stroke:none;stroke-width:1;stroke-linecap:butt;stroke-linejoin:miter;stroke-miterlimit:4;stroke-dasharray:none;stroke-dashoffset:0"
         vector-effect="non-scaling-stroke"
         points="0.14,-23.81 -40.64,-0.27 -40.95,-0.09 -40.64,0.09 0.17,23.81 -0.14,23.63 0.17,23.45 -40.33,-0.09 0.45,-23.63 40.95,-0.09 0.14,-23.81 "
         id="polyline9" />
    </g>
    <g
       transform="matrix(0.84025105,0,0,0.85449555,118.83683,41.826318)"
       id="g11">
      <polyline
         style="opacity:1;fill:#231f20;fill-rule:nonzero;stroke:none;stroke-width:1;stroke-linecap:butt;stroke-linejoin:miter;stroke-miterlimit:4;stroke-dasharray:none;stroke-dashoffset:0"
         vector-effect="non-scaling-stroke"
         points="0.13,-23.72 -40.64,-0.17 -40.95,0 -0.13,23.72 0.17,23.55 -40.34,0.01 0.44,-23.54 40.95,0 0.13,-23.72 "
         id="polyline10" />
    </g>
    <g
       transform="matrix(0.84025105,0,0,0.85449555,153.44566,21.510507)"
       id="g12">
      <polyline
         style="opacity:1;fill:#231f20;fill-rule:nonzero;stroke:none;stroke-width:1;stroke-linecap:butt;stroke-linejoin:miter;stroke-miterlimit:4;stroke-dasharray:none;stroke-dashoffset:0"
         vector-effect="non-scaling-stroke"
         points="0.3,-23.81 -0.02,-23.63 -40.8,-0.09 -41.11,0.09 -0.3,23.81 0.02,23.63 -40.49,0.09 0.29,-23.45 40.79,0.09 41.11,-0.09 0.3,-23.81 "
         id="polyline11" />
    </g>
    <g
       transform="matrix(0.96525648,0,0,0.90595486,120.77104,123.41287)"
       id="g13">
      <polyline
         style="opacity:1;fill:#5c52a3;fill-rule:nonzero;stroke:none;stroke-width:1;stroke-linecap:butt;stroke-linejoin:miter;stroke-miterlimit:4;stroke-dasharray:none;stroke-dashoffset:0"
         vector-effect="non-scaling-stroke"
         points="-0.14,23.84 41.84,0 0.14,-23.84 -41.84,0 -0.14,23.84 "
         id="polyline12" />
    </g>
    <g
       transform="matrix(0.84025105,0,0,0.85449555,33.011894,112.70528)"
       id="g15">
      <polyline
         style="opacity:1;fill:#231f20;fill-rule:nonzero;stroke:none;stroke-width:1;stroke-linecap:butt;stroke-linejoin:miter;stroke-miterlimit:4;stroke-dasharray:none;stroke-dashoffset:0"
         vector-effect="non-scaling-stroke"
         points="-20.48,-35.47 -20.35,11.74 20.48,35.47 20.48,35.12 -20.04,11.57 -20.17,-35.28 20.34,-11.74 -20.48,-35.47 "
         id="polyline14" />
    </g>
    <g
       transform="matrix(0.84025105,0,0,0.85449555,67.145196,51.486302)"
       id="g16">
      <polyline
         style="opacity:1;fill:#492b81;fill-rule:nonzero;stroke:none;stroke-width:1;stroke-linecap:butt;stroke-linejoin:miter;stroke-miterlimit:4;stroke-dasharray:none;stroke-dashoffset:0"
         vector-effect="non-scaling-stroke"
         points="-20.32,-35.2 -20.19,11.66 20.32,35.2 20.19,-11.66 -20.32,-35.2 "
         id="polyline15" />
    </g>
    <g
       transform="matrix(0.84025105,0,0,0.85449555,67.499096,173.02778)"
       id="g17">
      <polyline
         style="opacity:1;fill:#231f20;fill-rule:nonzero;stroke:none;stroke-width:1;stroke-linecap:butt;stroke-linejoin:miter;stroke-miterlimit:4;stroke-dasharray:none;stroke-dashoffset:0"
         vector-effect="non-scaling-stroke"
         points="-20.63,-35.22 -20.49,11.2 -20.49,11.55 -20.18,11.73 20.63,35.22 20.32,35.05 20.32,34.69 -20.18,11.37 -20.32,-35.04 20.19,-11.73 -20.63,-35.22 "
         id="polyline16" />
    </g>
    <g
       transform="matrix(0.84025105,0,0,0.85449555,67.26244,132.94377)"
       id="g18">
      <polyline
         style="opacity:1;fill:#231f20;fill-rule:nonzero;stroke:none;stroke-width:1;stroke-linecap:butt;stroke-linejoin:miter;stroke-miterlimit:4;stroke-dasharray:none;stroke-dashoffset:0"
         vector-effect="non-scaling-stroke"
         points="-20.47,-35.46 -20.34,11.4 -20.34,11.74 20.47,35.46 20.47,35.12 -20.03,11.58 -20.17,-35.28 20.34,-11.74 -20.47,-35.46 "
         id="polyline17" />
    </g>
    <g
       transform="matrix(0.84025105,0,0,0.85449555,136.15213,173.08742)"
       id="g20">
      <polyline
         style="opacity:1;fill:#492b81;fill-rule:nonzero;stroke:none;stroke-width:1;stroke-linecap:butt;stroke-linejoin:miter;stroke-miterlimit:4;stroke-dasharray:none;stroke-dashoffset:0"
         vector-effect="non-scaling-stroke"
         points="-20.32,-35.2 -20.19,11.66 20.32,35.2 20.19,-11.66 -20.32,-35.2 "
         id="polyline19" />
    </g>
    <g
       transform="matrix(0.83498261,0.02144755,-0.02142241,0.84499402,135.64416,91.589117)"
       id="g22">
      <polyline
         style="opacity:1;fill:#492b81;fill-rule:nonzero;stroke:none;stroke-width:1;stroke-linecap:butt;stroke-linejoin:miter;stroke-miterlimit:4;stroke-dasharray:none;stroke-dashoffset:0"
         vector-effect="non-scaling-stroke"
         points="20.56,35.43 20.42,-11.73 -20.56,-35.43 -20.42,11.73 20.56,35.43 "
         id="polyline21" />
    </g>
    <g
       transform="matrix(0.84025105,0,0,0.85449555,33.133481,112.6324)"
       id="g23">
      <polygon
         style="opacity:1;fill:#2e1a59;fill-rule:nonzero;stroke:none;stroke-width:1;stroke-linecap:butt;stroke-linejoin:miter;stroke-miterlimit:4;stroke-dasharray:none;stroke-dashoffset:0"
         vector-effect="non-scaling-stroke"
         points="20.19,-11.66 -20.32,-35.2 -20.19,11.66 20.32,35.2 "
         id="polygon22" />
    </g>
    <g
       transform="matrix(0.84025105,0,0,0.85449555,33.142169,112.62799)"
       id="g24">
      <path
         style="opacity:1;fill:#2e1a59;fill-rule:nonzero;stroke:none;stroke-width:1;stroke-linecap:butt;stroke-linejoin:miter;stroke-miterlimit:4;stroke-dasharray:none;stroke-dashoffset:0"
         vector-effect="non-scaling-stroke"
         transform="translate(-33.13,-160.86)"
         d="m 11.304,125.668 c 0.022,7.975 0.045,15.95 0.068,23.925 0.016,5.387 0.031,10.774 0.046,16.162 0.005,1.866 -0.79,5.799 0.224,7.529 0.934,1.595 4.295,2.722 5.783,3.587 4.577,2.659 9.153,5.318 13.729,7.978 7.18,4.173 14.36,8.346 21.54,12.518 0.981,0.57 2.261,-0.155 2.257,-1.295 -0.022,-7.975 -0.045,-15.949 -0.067,-23.924 -0.016,-5.387 -0.031,-10.774 -0.046,-16.161 -0.005,-1.867 0.79,-5.799 -0.224,-7.53 -0.934,-1.594 -4.295,-2.721 -5.784,-3.586 -4.576,-2.66 -9.153,-5.319 -13.729,-7.979 -7.18,-4.173 -14.36,-8.346 -21.541,-12.519 -1.676,-0.974 -3.186,1.619 -1.514,2.591 13.497,7.844 26.994,15.688 40.491,23.531 -1.158,-0.673 -0.721,-1.788 -0.714,0.37 0.004,1.707 0.009,3.414 0.014,5.122 0.015,5.387 0.03,10.774 0.046,16.161 0.022,7.975 0.045,15.949 0.067,23.924 0.752,-0.432 1.505,-0.863 2.257,-1.295 -13.497,-7.844 -26.994,-15.687 -40.491,-23.53 1.158,0.673 0.721,1.787 0.714,-0.369 -0.005,-1.708 -0.01,-3.415 -0.014,-5.122 -0.016,-5.388 -0.031,-10.775 -0.046,-16.162 -0.022,-7.975 -0.045,-15.95 -0.068,-23.925 -0.003,-1.935 -3.003,-1.936 -2.998,-10e-4 z"
         stroke-linecap="round"
         id="path23" />
    </g>
    <g
       transform="matrix(0.84025105,0,0,0.85449555,67.501274,172.30137)"
       id="g25">
      <polygon
         style="opacity:1;fill:#2e1a59;fill-rule:nonzero;stroke:none;stroke-width:1;stroke-linecap:butt;stroke-linejoin:miter;stroke-miterlimit:4;stroke-dasharray:none;stroke-dashoffset:0"
         vector-effect="non-scaling-stroke"
         points="20.19,-11.54 -20.32,-34.84 -20.18,11.54 20.32,34.84 "
         id="polygon24" />
    </g>
    <g
       transform="matrix(0.84025105,0,0,0.85449555,67.507786,172.29472)"
       id="g26">
      <path
         style="opacity:1;fill:#2e1a59;fill-rule:nonzero;stroke:none;stroke-width:1;stroke-linecap:butt;stroke-linejoin:miter;stroke-miterlimit:4;stroke-dasharray:none;stroke-dashoffset:0"
         vector-effect="non-scaling-stroke"
         transform="translate(-74.08,-230.78)"
         d="m 52.261,195.951 c 0.023,8.061 0.046,16.122 0.069,24.183 0.016,5.345 0.031,10.689 0.046,16.034 0.005,1.729 -0.719,5.311 0.222,6.918 0.931,1.588 4.297,2.701 5.782,3.555 4.575,2.632 9.15,5.264 13.725,7.896 7.178,4.129 14.356,8.259 21.534,12.388 0.982,0.565 2.261,-0.151 2.257,-1.295 -0.023,-8.062 -0.046,-16.122 -0.069,-24.184 -0.016,-5.345 -0.031,-10.689 -0.046,-16.034 -0.005,-1.73 0.719,-5.312 -0.222,-6.919 -0.931,-1.588 -4.297,-2.7 -5.782,-3.555 -4.575,-2.632 -9.15,-5.264 -13.726,-7.896 -7.178,-4.129 -14.356,-8.258 -21.535,-12.387 -1.68,-0.967 -3.19,1.626 -1.515,2.59 13.494,7.762 26.987,15.523 40.481,23.285 -1.164,-0.669 -0.721,-1.781 -0.714,0.397 0.005,1.733 0.01,3.466 0.015,5.199 0.016,5.438 0.031,10.875 0.047,16.312 0.022,7.73 0.044,15.461 0.066,23.19 0.752,-0.432 1.505,-0.863 2.257,-1.295 -13.494,-7.763 -26.987,-15.525 -40.48,-23.287 1.164,0.669 0.721,1.781 0.714,-0.397 -0.005,-1.733 -0.01,-3.466 -0.015,-5.199 -0.016,-5.437 -0.031,-10.874 -0.047,-16.311 -0.022,-7.73 -0.045,-15.46 -0.067,-23.189 -0.002,-1.933 -3.002,-1.933 -2.997,0.001 z"
         stroke-linecap="round"
         id="path25" />
    </g>
    <g
       transform="matrix(0.81251916,0,0,0.85449555,67.548326,133.48729)"
       id="g27">
      <polygon
         style="opacity:1;fill:#2e1a59;fill-rule:nonzero;stroke:none;stroke-width:1;stroke-linecap:butt;stroke-linejoin:miter;stroke-miterlimit:4;stroke-dasharray:none;stroke-dashoffset:0"
         vector-effect="non-scaling-stroke"
         points="20.19,-11.66 -20.32,-35.2 -20.19,11.66 20.32,35.2 "
         id="polygon26" />
    </g>
    <g
       transform="matrix(0.84025105,0,0,0.85449555,65.822622,92.879286)"
       id="g29">
      <polygon
         style="opacity:1;fill:#2e1a59;fill-rule:nonzero;stroke:none;stroke-width:1;stroke-linecap:butt;stroke-linejoin:miter;stroke-miterlimit:4;stroke-dasharray:none;stroke-dashoffset:0"
         vector-effect="non-scaling-stroke"
         points="-20.32,-35.2 -20.19,11.66 20.32,35.2 20.19,-11.66 "
         id="polygon28" />
    </g>
    <g
       transform="matrix(0.77460302,0,0,0.83598822,65.17653,92.296359)"
       id="g30">
      <path
         style="opacity:1;fill:#2e1a59;fill-rule:nonzero;stroke:none;stroke-width:1;stroke-linecap:butt;stroke-linejoin:miter;stroke-miterlimit:4;stroke-dasharray:none;stroke-dashoffset:0"
         vector-effect="non-scaling-stroke"
         transform="translate(-73.72,-137.38)"
         d="m 94.755,124.42 c -13.501,-7.845 -27.002,-15.691 -40.504,-23.537 -0.981,-0.57 -2.26,0.155 -2.257,1.295 0.022,7.975 0.045,15.949 0.067,23.923 0.015,5.387 0.03,10.774 0.045,16.161 0.005,1.867 -0.79,5.799 0.224,7.53 0.934,1.594 4.294,2.721 5.782,3.585 4.575,2.659 9.15,5.318 13.726,7.978 7.179,4.172 14.357,8.343 21.536,12.515 0.981,0.57 2.26,-0.155 2.257,-1.295 -0.044,-15.62 -0.089,-31.24 -0.133,-46.86 -0.005,-1.934 -3.005,-1.935 -3,0 0.044,15.62 0.089,31.24 0.133,46.86 0.752,-0.432 1.505,-0.863 2.257,-1.295 -13.494,-7.842 -26.987,-15.684 -40.481,-23.526 1.158,0.673 0.721,1.788 0.714,-0.369 -0.004,-1.708 -0.009,-3.415 -0.014,-5.122 -0.015,-5.387 -0.03,-10.774 -0.045,-16.161 -0.022,-7.975 -0.045,-15.949 -0.067,-23.923 -0.752,0.432 -1.505,0.863 -2.257,1.295 13.501,7.845 27.002,15.691 40.503,23.537 1.676,0.973 3.185,-1.619 1.514,-2.591 z"
         stroke-linecap="round"
         id="path29" />
    </g>
    <g
       transform="matrix(0.93705697,0,0,0.92169801,100.51992,150.91921)"
       id="g31">
      <polygon
         style="opacity:1;fill:#2e1a59;fill-rule:nonzero;stroke:none;stroke-width:1;stroke-linecap:butt;stroke-linejoin:miter;stroke-miterlimit:4;stroke-dasharray:none;stroke-dashoffset:0"
         vector-effect="non-scaling-stroke"
         points="-20.32,-34.85 -20.19,11.54 20.32,34.85 20.19,-11.54 "
         id="polygon30"
         transform="matrix(0.97489975,0,0,0.94016603,0.51003709,2.0852138)" />
    </g>
    <g
       transform="matrix(0.86169513,0,0,0.89213819,85.264865,21.58672)"
       id="g33">
      <polygon
         style="opacity:1;fill:#60208a;fill-rule:nonzero;stroke:none;stroke-width:1;stroke-linecap:butt;stroke-linejoin:miter;stroke-miterlimit:4;stroke-dasharray:none;stroke-dashoffset:0"
         vector-effect="non-scaling-stroke"
         points="0.13,-23.55 -40.65,0 -0.13,23.55 40.65,0 "
         id="polygon32" />
    </g>
    <g
       transform="matrix(0.84025105,0,0,0.85449555,84.831706,61.788826)"
       id="g35">
      <polygon
         style="opacity:1;fill:#60208a;fill-rule:nonzero;stroke:none;stroke-width:1;stroke-linecap:butt;stroke-linejoin:miter;stroke-miterlimit:4;stroke-dasharray:none;stroke-dashoffset:0"
         vector-effect="non-scaling-stroke"
         points="0.14,-23.88 -40.39,0 -0.14,23.88 40.39,0 "
         id="polygon34" />
    </g>
    <g
       transform="matrix(0.84025105,0,0,0.85449555,84.83604,61.788826)"
       id="g36">
      <path
         style="opacity:1;fill:#60208a;fill-rule:nonzero;stroke:none;stroke-width:1;stroke-linecap:butt;stroke-linejoin:miter;stroke-miterlimit:4;stroke-dasharray:none;stroke-dashoffset:0"
         vector-effect="non-scaling-stroke"
         transform="translate(-94.7,-101.3)"
         d="m 53.549,102.601 c 13.418,7.958 26.837,15.916 40.255,23.875 0.459,0.272 1.055,0.271 1.515,0 13.509,-7.961 27.019,-15.922 40.528,-23.882 0.974,-0.574 0.969,-2.016 0,-2.591 -13.418,-7.958 -26.837,-15.916 -40.255,-23.874 -0.459,-0.272 -1.055,-0.271 -1.515,0 -13.509,7.96 -27.018,15.921 -40.528,23.881 -1.665,0.981 -0.156,3.575 1.515,2.591 13.501,-7.956 27.003,-15.912 40.504,-23.868 -1.164,0.686 -1.949,-0.286 -0.072,0.827 1.467,0.87 2.933,1.74 4.4,2.61 4.628,2.745 9.256,5.489 13.884,8.234 6.851,4.063 13.702,8.126 20.552,12.189 0,-0.864 0,-1.727 0,-2.591 -13.501,7.956 -27.003,15.913 -40.504,23.869 1.164,-0.686 1.949,0.286 0.072,-0.827 -1.467,-0.87 -2.933,-1.74 -4.4,-2.61 -4.628,-2.745 -9.256,-5.489 -13.884,-8.234 -6.851,-4.063 -13.702,-8.126 -20.552,-12.189 -1.669,-0.99 -3.177,1.604 -1.515,2.59 z"
         stroke-linecap="round"
         id="path35" />
    </g>
    <g
       transform="matrix(0.84025105,0,0,0.85449555,119.093,41.830729)"
       id="g37">
      <polygon
         style="opacity:1;fill:#60208a;fill-rule:nonzero;stroke:#60208a;stroke-width:1;stroke-linecap:butt;stroke-linejoin:miter;stroke-miterlimit:10;stroke-dasharray:none;stroke-dashoffset:0"
         vector-effect="non-scaling-stroke"
         points="40.64,0 0.14,-23.54 -40.64,0 -0.14,23.54 "
         id="polygon36" />
    </g>
    <g
       transform="matrix(0.84025105,0,0,0.85449555,153.57375,21.585583)"
       id="g38">
      <polygon
         style="opacity:1;fill:#60208a;fill-rule:nonzero;stroke:none;stroke-width:1;stroke-linecap:butt;stroke-linejoin:miter;stroke-miterlimit:4;stroke-dasharray:none;stroke-dashoffset:0"
         vector-effect="non-scaling-stroke"
         points="-0.14,23.54 40.64,0 0.14,-23.54 -40.64,0 "
         id="polygon37" />
    </g>
    <g
       transform="matrix(0.81955881,0,0,0.81909151,152.70198,22.47418)"
       id="g39">
      <path
         style="opacity:1;fill:#60208a;fill-rule:nonzero;stroke:none;stroke-width:1;stroke-linecap:butt;stroke-linejoin:miter;stroke-miterlimit:4;stroke-dasharray:none;stroke-dashoffset:0"
         vector-effect="non-scaling-stroke"
         transform="translate(-176.62,-54.2)"
         d="m 218.014,52.9 c -13.5,-7.846 -27,-15.692 -40.501,-23.539 -0.466,-0.271 -1.048,-0.269 -1.514,0 -13.594,7.848 -27.187,15.696 -40.78,23.544 -0.976,0.563 -0.971,2.026 0,2.591 13.501,7.846 27.002,15.692 40.503,23.538 0.466,0.271 1.048,0.269 1.514,0 13.593,-7.848 27.186,-15.696 40.778,-23.544 1.675,-0.967 0.165,-3.56 -1.514,-2.591 -13.585,7.844 -27.17,15.687 -40.754,23.53 1.175,-0.678 1.941,0.276 0.063,-0.815 -1.476,-0.857 -2.951,-1.715 -4.427,-2.573 -4.656,-2.706 -9.313,-5.412 -13.969,-8.118 -6.893,-4.006 -13.786,-8.012 -20.68,-12.018 0,0.864 0,1.727 0,2.591 13.585,-7.844 27.171,-15.687 40.756,-23.531 -1.175,0.678 -1.941,-0.276 -0.063,0.815 1.476,0.857 2.952,1.715 4.427,2.573 4.656,2.706 9.313,5.413 13.969,8.119 6.893,4.006 13.786,8.012 20.679,12.018 1.675,0.974 3.185,-1.618 1.513,-2.59 z"
         stroke-linecap="round"
         id="path38" />
    </g>
    <g
       transform="matrix(0.84025105,0,0,0.85449555,188.1782,81.517302)"
       id="g40">
      <polyline
         style="opacity:1;fill:#5c52a3;fill-rule:nonzero;stroke:none;stroke-width:1;stroke-linecap:butt;stroke-linejoin:miter;stroke-miterlimit:4;stroke-dasharray:none;stroke-dashoffset:0"
         vector-effect="non-scaling-stroke"
         points="0.14,-23.54 -40.65,0 -0.13,23.54 40.65,0 0.14,-23.54 "
         id="polyline39" />
    </g>
    <g
       transform="matrix(0.84025105,0,0,0.85449555,188.18689,81.512877)"
       id="g41">
      <path
         style="opacity:1;fill:#5c52a3;fill-rule:nonzero;stroke:none;stroke-width:1;stroke-linecap:butt;stroke-linejoin:miter;stroke-miterlimit:4;stroke-dasharray:none;stroke-dashoffset:0"
         vector-effect="non-scaling-stroke"
         transform="translate(-217.86,-124.41)"
         d="m 217.235,99.579 c -13.594,7.848 -27.188,15.695 -40.781,23.542 -0.975,0.563 -0.971,2.026 0,2.591 13.506,7.848 27.012,15.697 40.518,23.545 0.466,0.271 1.048,0.269 1.514,0 13.592,-7.848 27.184,-15.695 40.775,-23.542 0.976,-0.563 0.971,-2.026 0,-2.591 -13.503,-7.848 -27.007,-15.697 -40.511,-23.545 -1.676,-0.974 -3.186,1.619 -1.515,2.591 13.504,7.848 27.008,15.697 40.512,23.545 0,-0.864 0,-1.727 0,-2.591 -13.584,7.843 -27.168,15.686 -40.751,23.529 1.175,-0.678 1.941,0.276 0.063,-0.815 -1.476,-0.858 -2.953,-1.716 -4.429,-2.574 -4.658,-2.707 -9.316,-5.414 -13.975,-8.121 -6.895,-4.007 -13.791,-8.014 -20.686,-12.021 0,0.864 0,1.727 0,2.591 13.594,-7.848 27.188,-15.695 40.781,-23.542 1.674,-0.968 0.164,-3.561 -1.515,-2.592 z"
         stroke-linecap="round"
         id="path40" />
    </g>
    <g
       transform="matrix(0.84025105,0,0,0.85885518,136.24329,152.67024)"
       id="g42">
      <polygon
         style="opacity:1;fill:#ffffff;fill-rule:nonzero;stroke:none;stroke-width:1;stroke-linecap:butt;stroke-linejoin:miter;stroke-miterlimit:4;stroke-dasharray:none;stroke-dashoffset:0"
         vector-effect="non-scaling-stroke"
         points="-20.04,-11.24 -19.94,33.89 20.04,11.23 19.94,-33.89 "
         id="polygon41" />
    </g>
    <g
       transform="matrix(0.82676351,0,0,0.85449555,136.53393,152.82018)"
       id="g43">
      <path
         style="opacity:1;fill:#ffffff;fill-rule:nonzero;stroke:none;stroke-width:1;stroke-linecap:butt;stroke-linejoin:miter;stroke-miterlimit:4;stroke-dasharray:none;stroke-dashoffset:0"
         vector-effect="non-scaling-stroke"
         transform="translate(-155.99,-207.96)"
         d="m 134.451,196.723 c 0.034,15.043 0.068,30.085 0.102,45.128 0.002,1.147 1.269,1.855 2.257,1.295 13.328,-7.552 26.657,-15.104 39.985,-22.657 0.458,-0.259 0.744,-0.772 0.743,-1.295 -0.035,-15.042 -0.069,-30.085 -0.104,-45.127 -0.002,-1.147 -1.269,-1.855 -2.257,-1.295 -13.328,7.552 -26.656,15.104 -39.983,22.656 -1.683,0.953 -0.171,3.545 1.514,2.59 13.328,-7.552 26.656,-15.104 39.984,-22.656 -0.752,-0.432 -1.505,-0.863 -2.257,-1.295 0.017,7.521 0.035,15.042 0.052,22.563 0.012,5.171 0.023,10.342 0.036,15.513 0.003,1.629 0.007,3.259 0.011,4.889 0.001,0.488 0.002,0.978 0.003,1.466 0.003,1.333 -0.201,-0.063 0.719,-0.585 -13.32,7.548 -26.641,15.096 -39.961,22.644 0.752,0.432 1.505,0.863 2.257,1.295 -0.034,-15.043 -0.068,-30.085 -0.102,-45.128 -0.003,-1.936 -3.003,-1.936 -2.999,-10e-4 z"
         stroke-linecap="round"
         id="path42" />
    </g>
    <g
       transform="matrix(0.84025105,0,0,0.85449555,170.37443,132.86871)"
       id="g44">
      <polygon
         style="opacity:1;fill:#ffffff;fill-rule:nonzero;stroke:none;stroke-width:1;stroke-linecap:butt;stroke-linejoin:miter;stroke-miterlimit:4;stroke-dasharray:none;stroke-dashoffset:0"
         vector-effect="non-scaling-stroke"
         points="20.46,11.65 20.32,-35.19 -20.46,-11.65 -20.32,35.2 "
         id="polygon43" />
    </g>
    <g
       transform="matrix(0.84025105,0,0,0.85449555,170.38093,132.87311)"
       id="g45">
      <path
         style="opacity:1;fill:#ffffff;fill-rule:nonzero;stroke:none;stroke-width:1;stroke-linecap:butt;stroke-linejoin:miter;stroke-miterlimit:4;stroke-dasharray:none;stroke-dashoffset:0"
         vector-effect="non-scaling-stroke"
         transform="translate(-196.67,-184.59)"
         d="m 216.992,146.892 c -13.593,7.849 -27.187,15.696 -40.78,23.545 -0.272,0.157 -0.025,2.846 -0.024,3.165 0.044,15.615 0.088,31.23 0.132,46.846 0,0.132 0.135,1.771 0.024,1.835 13.593,-7.847 27.187,-15.694 40.78,-23.541 0.272,-0.157 0.025,-2.847 0.024,-3.165 -0.044,-15.616 -0.088,-31.232 -0.132,-46.849 -0.01,-3.518 -0.052,-0.204 -0.048,1.329 0.044,15.617 0.088,31.233 0.132,46.85 0.008,-1.056 0.016,-2.11 0.024,-3.165 -13.593,7.847 -27.187,15.694 -40.78,23.541 0.008,0.611 0.016,1.224 0.024,1.835 -0.044,-15.615 -0.088,-31.23 -0.132,-46.846 -0.008,1.056 -0.016,2.11 -0.024,3.165 13.593,-7.849 27.187,-15.696 40.78,-23.545 0.749,-0.433 -0.693,-4.6 0,-5 z"
         stroke-linecap="round"
         id="path44" />
    </g>
    <g
       transform="matrix(0.84025105,0,0,0.85449555,205.30673,112.28354)"
       id="g46">
      <polygon
         style="opacity:1;fill:#ffffff;fill-rule:nonzero;stroke:none;stroke-width:1;stroke-linecap:butt;stroke-linejoin:miter;stroke-miterlimit:4;stroke-dasharray:none;stroke-dashoffset:0"
         vector-effect="non-scaling-stroke"
         points="20.99,11.78 20.86,-35.6 -20.99,-11.78 -20.85,35.6 "
         id="polygon45" />
    </g>
    <g
       transform="matrix(0.84025105,0,0,0.85449555,205.30673,112.27691)"
       id="g47">
      <path
         style="opacity:1;fill:#ffffff;fill-rule:nonzero;stroke:none;stroke-width:1;stroke-linecap:butt;stroke-linejoin:miter;stroke-miterlimit:4;stroke-dasharray:none;stroke-dashoffset:0"
         vector-effect="non-scaling-stroke"
         transform="translate(-238.29,-160.45)"
         d="m 258.392,123.56 c -13.949,7.939 -27.898,15.879 -41.848,23.818 -0.457,0.26 -0.744,0.772 -0.743,1.295 0.046,15.795 0.092,31.591 0.139,47.386 0.003,1.146 1.269,1.857 2.257,1.295 13.947,-7.938 27.895,-15.878 41.843,-23.817 0.457,-0.26 0.744,-0.771 0.743,-1.295 -0.044,-15.796 -0.089,-31.591 -0.134,-47.387 -0.005,-1.935 -3.005,-1.935 -3,0 0.022,7.898 0.044,15.795 0.067,23.693 0.015,5.43 0.031,10.859 0.046,16.289 0.005,1.789 0.01,3.579 0.015,5.368 0.007,2.389 -0.522,1.465 0.726,0.754 -13.94,7.935 -27.88,15.87 -41.82,23.805 0.752,0.432 1.505,0.863 2.257,1.295 -0.023,-7.897 -0.046,-15.795 -0.069,-23.692 -0.016,-5.43 -0.032,-10.859 -0.048,-16.289 -0.005,-1.79 -0.01,-3.579 -0.016,-5.368 -0.007,-2.389 0.522,-1.464 -0.726,-0.754 13.941,-7.935 27.883,-15.87 41.825,-23.805 1.681,-0.957 0.17,-3.549 -1.514,-2.591 z"
         stroke-linecap="round"
         id="path46" />
    </g>
    <g
       transform="matrix(0.84025105,0,0,0.85449555,170.49168,172.58621)"
       id="g48">
      <polygon
         style="opacity:1;fill:#ffffff;fill-rule:nonzero;stroke:none;stroke-width:1;stroke-linecap:butt;stroke-linejoin:miter;stroke-miterlimit:4;stroke-dasharray:none;stroke-dashoffset:0"
         vector-effect="non-scaling-stroke"
         points="20.32,-34.52 -20.46,-11.43 -20.33,34.52 20.45,11.43 "
         id="polygon47" />
    </g>
    <g
       transform="matrix(0.84025105,0,0,0.85449555,170.49168,172.58621)"
       id="g49">
      <path
         style="opacity:1;fill:#ffffff;fill-rule:nonzero;stroke:none;stroke-width:1;stroke-linecap:butt;stroke-linejoin:miter;stroke-miterlimit:4;stroke-dasharray:none;stroke-dashoffset:0"
         vector-effect="non-scaling-stroke"
         transform="translate(-196.8,-231.12)"
         d="m 174.847,219.687 c 0.043,15.319 0.087,30.638 0.13,45.957 0.003,1.147 1.269,1.854 2.257,1.295 13.593,-7.696 27.187,-15.394 40.779,-23.091 0.457,-0.259 0.745,-0.772 0.743,-1.295 -0.043,-15.318 -0.087,-30.638 -0.13,-45.956 -0.003,-1.147 -1.269,-1.854 -2.257,-1.295 -13.593,7.696 -27.187,15.393 -40.779,23.09 -1.683,0.952 -0.172,3.545 1.514,2.59 13.594,-7.696 27.187,-15.393 40.78,-23.09 -0.752,-0.432 -1.505,-0.863 -2.257,-1.295 0.021,7.493 0.042,14.985 0.064,22.479 0.015,5.242 0.029,10.484 0.044,15.727 0.005,1.87 0.011,3.739 0.016,5.609 0.001,0.484 0.002,0.969 0.004,1.452 0.004,1.326 -0.199,-0.071 0.721,-0.592 -13.585,7.692 -27.17,15.385 -40.756,23.077 0.752,0.432 1.505,0.863 2.257,1.295 -0.043,-15.319 -0.087,-30.638 -0.13,-45.957 -0.006,-1.935 -3.006,-1.935 -3,0 z"
         stroke-linecap="round"
         id="path48" />
    </g>
    <g
       transform="matrix(0.85445626,0,0,0.85029815,170.78231,51.629636)"
       id="g50">
      <polygon
         style="opacity:1;fill:#ffffff;fill-rule:nonzero;stroke:none;stroke-width:1;stroke-linecap:butt;stroke-linejoin:miter;stroke-miterlimit:4;stroke-dasharray:none;stroke-dashoffset:0"
         vector-effect="non-scaling-stroke"
         points="20.32,-35.2 -20.46,-11.65 -20.33,35.2 20.45,11.65 "
         id="polygon49" />
    </g>
    <g
       transform="matrix(0.84025105,0,0,0.85449555,169.97711,92.585989)"
       id="g51">
      <polygon
         style="opacity:1;fill:#ffffff;fill-rule:nonzero;stroke:none;stroke-width:1;stroke-linecap:butt;stroke-linejoin:miter;stroke-miterlimit:4;stroke-dasharray:none;stroke-dashoffset:0"
         vector-effect="non-scaling-stroke"
         points="19.84,11.66 19.71,-35.2 -19.84,-11.66 -19.71,35.2 "
         id="polygon50" />
    </g>
    <g
       transform="matrix(0.84025105,0,0,0.8601873,169.97493,92.370415)"
       id="g52">
      <path
         style="opacity:1;fill:#ffffff;fill-rule:nonzero;stroke:none;stroke-width:1;stroke-linecap:butt;stroke-linejoin:miter;stroke-miterlimit:4;stroke-dasharray:none;stroke-dashoffset:0"
         vector-effect="non-scaling-stroke"
         transform="translate(-196.19,-137.37)"
         d="m 215.147,100.883 c -6.875,4.092 -13.751,8.184 -20.626,12.275 -4.559,2.713 -9.117,5.426 -13.676,8.139 -1.5,0.893 -4.849,2.054 -5.793,3.666 -0.928,1.584 -0.192,5.122 -0.188,6.824 0.015,5.293 0.03,10.587 0.044,15.88 0.023,8.306 0.046,16.61 0.069,24.916 0.003,1.129 1.274,1.88 2.257,1.295 6.875,-4.093 13.75,-8.186 20.625,-12.278 4.558,-2.713 9.117,-5.427 13.675,-8.141 1.5,-0.893 4.849,-2.055 5.793,-3.666 0.928,-1.585 0.193,-5.122 0.188,-6.824 -0.014,-5.292 -0.028,-10.585 -0.043,-15.878 -0.022,-8.304 -0.045,-16.608 -0.067,-24.913 -0.005,-1.935 -3.005,-1.935 -3,0 0.042,15.61 0.084,31.22 0.127,46.829 -0.004,-1.341 1.172,-1.523 -0.689,-0.415 -1.478,0.88 -2.956,1.76 -4.434,2.64 -4.637,2.761 -9.274,5.521 -13.912,8.281 -6.593,3.925 -13.185,7.85 -19.777,11.774 0.752,0.432 1.504,0.863 2.257,1.295 -0.043,-15.612 -0.086,-31.224 -0.13,-46.835 0.004,1.341 -1.172,1.523 0.689,0.415 1.478,-0.879 2.956,-1.759 4.434,-2.639 4.638,-2.76 9.275,-5.52 13.913,-8.279 6.593,-3.924 13.186,-7.847 19.778,-11.771 1.661,-0.987 0.153,-3.581 -1.514,-2.59 z"
         stroke-linecap="round"
         id="path51" />
    </g>
    <g
       transform="matrix(0.83503096,0,0,0.8368214,152.0835,60.393058)"
       id="g53">
      <polygon
         style="opacity:1;fill:#60208a;fill-rule:nonzero;stroke:none;stroke-width:1;stroke-linecap:butt;stroke-linejoin:miter;stroke-miterlimit:4;stroke-dasharray:none;stroke-dashoffset:0"
         vector-effect="non-scaling-stroke"
         points="-0.13,22.63 39.36,0 0.13,-22.63 -39.36,0 "
         id="polygon52" />
    </g>
    <g
       transform="matrix(0.84025105,0,0,0.85449555,151.88673,60.793019)"
       id="g54">
      <path
         style="opacity:1;fill:#60208a;fill-rule:nonzero;stroke:none;stroke-width:1;stroke-linecap:butt;stroke-linejoin:miter;stroke-miterlimit:4;stroke-dasharray:none;stroke-dashoffset:0"
         vector-effect="non-scaling-stroke"
         transform="translate(-174.61,-100.14)"
         d="m 134.486,101.436 c 6.828,3.939 13.655,7.877 20.482,11.816 4.419,2.55 8.839,5.099 13.258,7.649 1.54,0.888 4.341,3.375 6.251,3.375 1.716,0 4.163,-2.157 5.544,-2.949 4.557,-2.612 9.114,-5.224 13.671,-7.836 7.011,-4.019 14.021,-8.037 21.033,-12.055 0.975,-0.56 0.971,-2.03 0,-2.591 -6.828,-3.938 -13.655,-7.876 -20.482,-11.814 -4.419,-2.549 -8.839,-5.098 -13.258,-7.647 -1.54,-0.888 -4.341,-3.374 -6.251,-3.374 -1.716,0 -4.163,2.157 -5.544,2.948 -4.557,2.612 -9.114,5.223 -13.671,7.834 -7.011,4.018 -14.021,8.036 -21.033,12.053 -1.677,0.961 -0.167,3.554 1.515,2.591 13.155,-7.539 26.311,-15.078 39.466,-22.617 -1.198,0.687 -1.91,-0.257 0.012,0.852 1.543,0.89 3.086,1.78 4.629,2.67 4.495,2.593 8.991,5.186 13.486,7.779 6.539,3.772 13.078,7.544 19.617,11.316 0,-0.864 0,-1.727 0,-2.591 -13.155,7.541 -26.311,15.081 -39.466,22.621 1.198,-0.687 1.91,0.257 -0.012,-0.852 -1.543,-0.891 -3.086,-1.781 -4.629,-2.671 -4.495,-2.594 -8.991,-5.187 -13.486,-7.781 -6.539,-3.772 -13.078,-7.545 -19.617,-11.318 -1.679,-0.968 -3.189,1.625 -1.515,2.592 z"
         stroke-linecap="round"
         id="path53" />
    </g>
    <g
       transform="matrix(0.91285673,0,0,0.87641543,100.92575,92.600388)"
       id="g55">
      <polygon
         style="opacity:1;fill:#ffffff;fill-rule:nonzero;stroke:none;stroke-width:1;stroke-linecap:butt;stroke-linejoin:miter;stroke-miterlimit:4;stroke-dasharray:none;stroke-dashoffset:0"
         vector-effect="non-scaling-stroke"
         points="20.46,11.35 20.32,-34.28 -20.46,-11.35 -20.32,34.28 "
         id="polygon54" />
    </g>
    <text
       xml:space="preserve"
       style="font-size:55.7512px;line-height:100;font-family:'Microsoft Yi Baiti';-inkscape-font-specification:'Microsoft Yi Baiti';text-align:center;writing-mode:lr-tb;direction:ltr;text-anchor:middle;fill:#000000;stroke-width:1.04534"
       x="113.59117"
       y="253.55077"
       id="text1"
       transform="scale(1.0467803,0.9553103)"><tspan
         sodipodi:role="line"
         id="tspan1"
         style="font-style:normal;font-variant:normal;font-weight:normal;font-stretch:condensed;font-size:55.7512px;font-family:Bahnschrift;-inkscape-font-specification:'Bahnschrift Condensed';fill:#000000;stroke-width:1.04534"
         x="113.59117"
         y="253.55077">ConstructOS</tspan></text>
    <text
       xml:space="preserve"
       style="font-size:13.2292px;line-height:100;font-family:'Microsoft Yi Baiti';-inkscape-font-specification:'Microsoft Yi Baiti';text-align:center;writing-mode:lr-tb;direction:ltr;text-anchor:middle;fill:#9a00ff;fill-opacity:1;stroke-width:1.04534"
       x="111.89939"
       y="272.05545"
       id="text1-5"
       transform="scale(1.0467803,0.9553103)"><tspan
         sodipodi:role="line"
         id="tspan1-1"
         style="font-style:normal;font-variant:normal;font-weight:normal;font-stretch:condensed;font-size:13.2292px;font-family:Bahnschrift;-inkscape-font-specification:'Bahnschrift Condensed';fill:#9a00ff;fill-opacity:1;stroke-width:1.04534"
         x="111.89938"
         y="272.05545">The Operating System for Construction.</tspan></text>
  </g>
</svg>
